<?xml version="1.0" standalone="no"?>
<!DOCTYPE svg PUBLIC "-//W3C//DTD SVG 20010904//EN"
 "http://www.w3.org/TR/2001/REC-SVG-20010904/DTD/svg10.dtd">
<svg version="1.0" xmlns="http://www.w3.org/2000/svg"
 width="230.000000pt" height="62.000000pt" viewBox="0 0 230.000000 62.000000"
 preserveAspectRatio="xMidYMid meet">

<g transform="translate(0.000000,62.000000) scale(0.100000,-0.100000)"
fill="#000000" stroke="none">
<path d="M630 435 l0 -185 63 1 c34 0 55 3 47 6 -31 11 -71 58 -81 96 -27 103
46 197 154 197 69 0 137 -65 137 -130 0 -43 -16 -50 -122 -50 -54 0 -98 -3
-98 -6 0 -20 25 -44 55 -54 31 -10 40 -9 71 9 48 28 74 28 74 -2 0 -24 -22
-49 -50 -60 -8 -3 12 -6 45 -6 l60 -1 -3 142 c-2 108 0 143 10 149 18 12 24
11 41 -6 14 -13 19 -13 44 0 57 30 130 10 152 -43 8 -19 11 -68 9 -136 l-3
-106 62 0 62 0 -55 124 c-58 134 -61 147 -40 165 27 23 51 -5 90 -104 21 -53
40 -95 41 -93 2 2 20 44 40 95 20 51 43 97 51 104 16 13 42 6 50 -16 6 -14
-58 -175 -97 -243 l-18 -32 86 0 86 0 -27 21 c-21 16 -26 29 -26 64 0 35 5 48
27 64 28 23 39 26 116 36 38 5 47 10 45 23 -6 29 -53 38 -102 20 -47 -17 -70
-11 -64 18 5 32 66 56 127 51 46 -3 59 -9 83 -36 29 -32 29 -33 26 -147 l-3
-114 44 0 43 0 -23 19 c-23 19 -24 23 -24 185 l0 166 -602 0 -603 0 0 -185z"/>
<path d="M1898 581 c4 -38 6 -40 40 -43 64 -5 54 -57 -10 -58 -28 0 -28 0 -28
-72 0 -85 5 -95 45 -100 25 -2 30 -7 30 -30 -1 -27 1 -28 55 -28 l55 0 -32 20
c-47 29 -66 72 -61 141 3 45 10 65 29 85 68 74 188 71 252 -5 l27 -33 0 81 0
81 -203 0 -203 0 4 -39z"/>
<path d="M0 295 l0 -295 300 0 300 0 0 295 0 295 -300 0 -300 0 0 -295z"/>
<path d="M752 467 c-12 -13 -22 -26 -22 -30 0 -4 34 -7 75 -7 75 0 76 0 64 23
-16 30 -28 37 -65 37 -19 0 -39 -9 -52 -23z"/>
<path d="M1070 465 c-19 -21 -23 -38 -28 -120 l-5 -95 69 0 69 0 -3 102 c-4
111 -15 138 -57 138 -12 0 -32 -11 -45 -25z"/>
<path d="M2105 478 c-51 -29 -61 -98 -21 -144 52 -61 146 -20 146 64 -1 71
-67 113 -125 80z"/>
<path d="M1632 369 c-32 -12 -26 -50 11 -63 22 -8 32 -6 55 11 15 11 28 30 30
42 3 18 -1 21 -35 20 -21 0 -48 -4 -61 -10z"/>
<path d="M2282 315 c-6 -14 -26 -34 -44 -45 l-33 -20 48 0 47 0 0 45 c0 25 -2
45 -3 45 -2 0 -9 -11 -15 -25z"/>
<path d="M1716 265 c-19 -14 -19 -15 7 -15 19 0 25 4 21 15 -4 8 -7 15 -8 15
0 0 -10 -7 -20 -15z"/>
<path d="M668 159 c15 -16 16 -91 0 -107 -9 -9 -1 -12 39 -12 55 0 80 17 68
47 -4 10 -8 32 -9 48 -1 29 -3 30 -56 33 -44 3 -53 1 -42 -9z m70 -26 c-5 -25
-28 -28 -28 -4 0 12 6 21 16 21 9 0 14 -7 12 -17z m12 -58 c0 -8 -9 -15 -20
-15 -11 0 -20 7 -20 15 0 8 9 15 20 15 11 0 20 -7 20 -15z"/>
<path d="M800 105 l0 -65 752 0 c585 0 749 3 740 12 -16 16 -16 90 0 106 9 9
-155 12 -740 12 l-752 0 0 -65z m1447 18 c-3 -10 -5 -4 -5 12 0 17 2 24 5 18
2 -7 2 -21 0 -30z m0 -65 c-3 -7 -5 -2 -5 12 0 14 2 19 5 13 2 -7 2 -19 0 -25z"/>
</g>
</svg>
